HIERARCHY
ROOT hip
{
  OFFSET -287.714 -5.27641 18.5681
  CHANNELS 6 Xposition Yposition Zposition Zrotation Xrotation Yrotation
  JOINT abdomen
  {
    OFFSET 0 20.6881 -0.73152
    CHANNELS 3 Zrotation Xrotation Yrotation
    JOINT chest
    {
      OFFSET 0 11.7043 -0.48768
      CHANNELS 3 Zrotation Xrotation Yrotation
      JOINT neck
      {
        OFFSET 0 22.1894 -2.19456
        CHANNELS 3 Zrotation Xrotation Yrotation
        JOINT head
        {
          OFFSET -0.24384 7.07133 1.2192
          CHANNELS 3 Zrotation Xrotation Yrotation
          JOINT leftEye
          {
            OFFSET 4.14528 8.04674 8.04672
            CHANNELS 3 Zrotation Xrotation Yrotation
            End Site
            {
              OFFSET 1 0 0
            }
          }
          JOINT rightEye
          {
            OFFSET -3.6576 8.04674 8.04672
            CHANNELS 3 Zrotation Xrotation Yrotation
            End Site
            {
              OFFSET 1 0 0
            }
          }
        }
      }
      JOINT rCollar
      {
        OFFSET -2.68224 19.2634 -4.8768
        CHANNELS 3 Zrotation Xrotation Yrotation
        JOINT rShldr
        {
          OFFSET -8.77824 -1.95073 1.46304
          CHANNELS 3 Zrotation Xrotation Yrotation
          JOINT rForeArm
          {
            OFFSET -28.1742 -1.7115 0.48768
            CHANNELS 3 Zrotation Xrotation Yrotation
            JOINT rHand
            {
              OFFSET -22.5879 0.773209 7.07136
              CHANNELS 3 Zrotation Xrotation Yrotation
              JOINT rThumb1
              {
                OFFSET -1.2192 -0.487915 3.41376
                CHANNELS 3 Zrotation Xrotation Yrotation
                JOINT rThumb2
                {
                  OFFSET -3.37035 -0.52449 3.41376
                  CHANNELS 3 Zrotation Xrotation Yrotation
                  End Site
                  {
                    OFFSET -1.78271 -1.18214 1.43049
                  }
                }
              }
              JOINT rIndex1
              {
                OFFSET -7.75947 0.938293 5.60832
                CHANNELS 3 Zrotation Xrotation Yrotation
                JOINT rIndex2
                {
                  OFFSET -2.54057 -0.884171 1.56538
                  CHANNELS 3 Zrotation Xrotation Yrotation
                  End Site
                  {
                    OFFSET -1.62519 -0.234802 1.16502
                  }
                }
              }
              JOINT rMid1
              {
                OFFSET -8.24714 1.18213 3.41376
                CHANNELS 3 Zrotation Xrotation Yrotation
                JOINT rMid2
                {
                  OFFSET -3.10165 -0.590103 1.0647
                  CHANNELS 3 Zrotation Xrotation Yrotation
                  End Site
                  {
                    OFFSET -2.48547 -0.328903 0.83742
                  }
                }
              }
              JOINT rRing1
              {
                OFFSET -8.82822 0.546677 1.51678
                CHANNELS 3 Zrotation Xrotation Yrotation
                JOINT rRing2
                {
                  OFFSET -2.60934 -0.819778 -0.0198488
                  CHANNELS 3 Zrotation Xrotation Yrotation
                  End Site
                  {
                    OFFSET -2.33842 -0.294052 0.168128
                  }
                }
              }
              JOINT rPinky1
              {
                OFFSET -8.27202 -0.0477905 -0.4584
                CHANNELS 3 Zrotation Xrotation Yrotation
                JOINT rPinky2
                {
                  OFFSET -1.82734 -0.647385 -0.700984
                  CHANNELS 3 Zrotation Xrotation Yrotation
                  End Site
                  {
                    OFFSET -1.69225 -0.51767 -0.607171
                  }
                }
              }
            }
          }
        }
      }
      JOINT lCollar
      {
        OFFSET 2.68224 19.2634 -4.8768
        CHANNELS 3 Zrotation Xrotation Yrotation
        JOINT lShldr
        {
          OFFSET 8.77824 -1.95073 1.46304
          CHANNELS 3 Zrotation Xrotation Yrotation
          JOINT lForeArm
          {
            OFFSET 28.1742 -1.7115 0.48768
            CHANNELS 3 Zrotation Xrotation Yrotation
            JOINT lHand
            {
              OFFSET 22.5879 0.773209 7.07136
              CHANNELS 3 Zrotation Xrotation Yrotation
              JOINT lThumb1
              {
                OFFSET 1.2192 -0.487915 3.41376
                CHANNELS 3 Zrotation Xrotation Yrotation
                JOINT lThumb2
                {
                  OFFSET 3.37035 -0.52449 3.41376
                  CHANNELS 3 Zrotation Xrotation Yrotation
                  End Site
                  {
                    OFFSET 1.78271 -1.18214 1.43049
                  }
                }
              }
              JOINT lIndex1
              {
                OFFSET 7.75947 0.938293 5.60832
                CHANNELS 3 Zrotation Xrotation Yrotation
                JOINT lIndex2
                {
                  OFFSET 2.54057 -0.884171 1.56538
                  CHANNELS 3 Zrotation Xrotation Yrotation
                  End Site
                  {
                    OFFSET 1.62519 -0.234802 1.16502
                  }
                }
              }
              JOINT lMid1
              {
                OFFSET 8.24714 1.18213 3.41376
                CHANNELS 3 Zrotation Xrotation Yrotation
                JOINT lMid2
                {
                  OFFSET 3.10165 -0.590103 1.0647
                  CHANNELS 3 Zrotation Xrotation Yrotation
                  End Site
                  {
                    OFFSET 2.48547 -0.328903 0.83742
                  }
                }
              }
              JOINT lRing1
              {
                OFFSET 8.82822 0.546677 1.51678
                CHANNELS 3 Zrotation Xrotation Yrotation
                JOINT lRing2
                {
                  OFFSET 2.60934 -0.819778 -0.0198488
                  CHANNELS 3 Zrotation Xrotation Yrotation
                  End Site
                  {
                    OFFSET 2.33842 -0.294052 0.168128
                  }
                }
              }
              JOINT lPinky1
              {
                OFFSET 8.27202 -0.0477905 -0.4584
                CHANNELS 3 Zrotation Xrotation Yrotation
                JOINT lPinky2
                {
                  OFFSET 1.82734 -0.647385 -0.700984
                  CHANNELS 3 Zrotation Xrotation Yrotation
                  End Site
                  {
                    OFFSET 1.69225 -0.51767 -0.607171
                  }
                }
              }
            }
          }
        }
      }
    }
  }
  JOINT rButtock
  {
    OFFSET -8.77824 4.35084 1.2192
    CHANNELS 3 Zrotation Xrotation Yrotation
    JOINT rThigh
    {
      OFFSET 0 -1.70687 -2.19456
      CHANNELS 3 Zrotation Xrotation Yrotation
      JOINT rShin
      {
        OFFSET 0 -36.8199 0.73152
        CHANNELS 3 Zrotation Xrotation Yrotation
        JOINT rFoot
        {
          OFFSET 0.73152 -45.1104 -5.12064
          CHANNELS 3 Zrotation Xrotation Yrotation
          End Site
          {
            OFFSET -1.1221 -3.69964 12.103
          }
        }
      }
    }
  }
  JOINT lButtock
  {
    OFFSET 8.77824 4.35084 1.2192
    CHANNELS 3 Zrotation Xrotation Yrotation
    JOINT lThigh
    {
      OFFSET 0 -1.70687 -2.19456
      CHANNELS 3 Zrotation Xrotation Yrotation
      JOINT lShin
      {
        OFFSET 0 -36.8199 0.73152
        CHANNELS 3 Zrotation Xrotation Yrotation
        JOINT lFoot
        {
          OFFSET -0.73152 -45.1104 -5.12064
          CHANNELS 3 Zrotation Xrotation Yrotation
          End Site
          {
            OFFSET 1.1221 -3.69964 12.103
          }
        }
      }
    }
  }
}
MOTION
Frames:	7
Frame Time:	0.00833333
0.132498 -103.608 6.00437 0.292717 -0.00058029 -0.00500205 -0.385064 -0.00168901 -0.0109921 -0.106197 -0.00256873 -0.0183985 -1.34019e-014 -1.59028e-015 -6.21196e-018 -4.03067e-014 3.18055e-015 -9.31803e-018 -0 0 0 -0 0 0 -6.71058e-015 -9.70628e-018 1.49089e-016 -1.38024e-013 -1.30452e-016 3.97569e-016 -2.42637e-012 7.23377e-013 1.59028e-014 -2.78136e-011 -7.54288e-013 -4.13472e-014 -6.56047e-011 -6.97747e-014 -4.13472e-014 -1.13301e-010 -1.24042e-013 -7.39479e-014 -6.56021e-011 -7.03698e-014 -5.08889e-014 7.73091 5.47488 0.417314 -6.56042e-011 -6.9674e-014 -4.45278e-014 2.90554 0.965183 0.102902 -6.55963e-011 -6.93758e-014 -4.53229e-014 10.2786 0.731801 0.0259123 -6.56059e-011 -6.91771e-014 -3.81667e-014 2.22167 -0.733487 -0.20892 -6.70782e-015 -9.70628e-018 -1.49089e-016 -1.4314e-013 -6.21202e-017 -1.39149e-015 -2.43203e-012 -7.3113e-013 1.90833e-014 -2.78145e-011 7.00492e-013 -3.81667e-014 -6.56124e-011 -6.9752e-014 -4.45278e-014 -1.13305e-010 -1.17681e-013 -7.31528e-014 -6.56184e-011 -6.71892e-014 -3.18055e-014 -7.73091 5.47488 -0.417314 -6.56127e-011 -6.93758e-014 -4.77083e-014 -2.90554 0.965183 -0.102902 -6.56206e-011 -6.92765e-014 -4.29375e-014 -10.2786 0.731801 -0.0259123 -6.56117e-011 -6.91771e-014 -4.77083e-014 -2.22167 -0.733487 0.20892 -2.03217e-016 0 -3.88251e-019 0.219443 -2.58374 -0.028033 -0.00747333 -0.872304 -0.0649973 -0.510805 3.45563 0.129014 2.03217e-016 0 3.88251e-019 -0.809986 -4.07055 0.0654656 0.00327164 1.82086 0.0245737 0.520019 2.24934 -0.105492 
-0.0949052 -118.95 5.98236 0.22856 0.129642 -0.0055675 -0.31947 0.173994 -0.010399 -0.104527 0.349152 -0.0178282 -9.15735e-015 4.375 2.91984e-017 -2.84897e-011 -8.75 -8.70646e-011 -0 0 0 -0 0 0 -4.57768e-015 -1.1571e-016 1.62677e-016 -2.1875 1.29107e-009 7.13218e-011 -1.34534e-012 1.74716e-013 2.48481e-016 -1.50132e-011 -1.51125e-012 -1.1527e-013 -3.54653e-011 -2.90076e-012 -2.35287e-013 -6.12402e-011 -5.01166e-012 -4.09863e-013 -3.54618e-011 -2.9013e-012 -2.43089e-013 7.73091 5.47488 0.417314 -3.54643e-011 -2.90087e-012 -2.36728e-013 2.90554 0.965183 0.102902 -3.54552e-011 -2.90028e-012 -2.3948e-013 10.2786 0.731801 0.0259123 -3.5466e-011 -2.89999e-012 -2.33845e-013 2.22167 -0.733487 -0.20892 -4.5737e-015 -1.1555e-016 -1.355e-016 2.1875 1.29107e-009 -7.13225e-011 -1.96341e-012 -8.45928e-013 2.95195e-014 -2.2877e-011 -6.79253e-013 1.88821e-013 -5.38775e-011 -3.31221e-012 4.68585e-013 -9.30368e-011 -5.72105e-012 8.1088e-013 -5.3883e-011 -3.31013e-012 4.79568e-013 -7.73091 5.47488 -0.417314 -5.38776e-011 -3.31204e-012 4.64535e-013 -2.90554 0.965183 -0.102902 -5.38856e-011 -3.31175e-012 4.69088e-013 -10.2786 0.731801 -0.0259123 -5.38762e-011 -3.31059e-012 4.64535e-013 -2.22167 -0.733487 0.20892 -2.03217e-016 0 -3.88251e-019 -12.9048 -2.49239 0.0777518 0.0303481 -1.20811 0.323245 6.93643 3.24216 -0.905044 2.03217e-016 0 3.88251e-019 12.5251 -3.5691 -0.052329 -0.0208504 0.748577 -0.35506 -6.99736 2.35701 0.93133 
-0.0949052 -118.95 5.98236 0.16074 0.267306 -0.00616529 -0.250131 0.359715 -0.00977212 -0.10277 0.720971 -0.017226 -4.67624e-015 9 6.72855e-017 -8.8836e-011 -18 -1.8613e-010 -0 0 0 -0 0 0 -2.3229e-015 -2.2777e-016 1.77043e-016 -4.5 2.65591e-009 1.46719e-010 -2.02534e-013 -4.05297e-013 -1.63003e-014 -1.48131e-012 -2.31147e-012 -1.93417e-013 -3.6036e-012 -5.89351e-012 -4.40308e-013 -6.20452e-012 -1.01786e-011 -7.64973e-013 -3.59927e-012 -5.89399e-012 -4.46272e-013 7.73091 5.47488 0.417314 -3.60223e-012 -5.89385e-012 -4.3991e-013 2.90554 0.965183 0.102902 -3.59166e-012 -5.89294e-012 -4.44731e-013 10.2786 0.731801 0.0259123 -3.60383e-012 -5.89257e-012 -4.40706e-013 2.22167 -0.733487 -0.20892 -2.31764e-015 -2.27442e-016 -1.21134e-016 4.5 2.65591e-009 -1.46719e-010 -1.46801e-012 -9.67286e-013 4.05521e-014 -1.76574e-011 -2.13784e-012 4.28779e-013 -4.1472e-011 -6.73995e-012 1.01102e-012 -7.16106e-011 -1.16446e-011 1.74543e-012 -4.1477e-011 -6.73838e-012 1.02016e-012 -7.73091 5.47488 -0.417314 -4.14719e-011 -6.74001e-012 1.00605e-012 -2.90554 0.965183 -0.102902 -4.14801e-011 -6.73951e-012 1.01037e-012 -10.2786 0.731801 -0.0259123 -4.14701e-011 -6.73723e-012 1.00605e-012 -2.22167 -0.733487 0.20892 -2.03217e-016 0 -3.88251e-019 -26.7794 -2.39581 0.189566 0.0752808 -1.56301 0.73379 14.8008 3.01547 -1.99773 2.03217e-016 0 3.88251e-019 26.6244 -3.03897 -0.17672 -0.0618005 -0.38492 -0.756328 -14.9486 2.46993 2.02758 
-0.0949052 -118.95 5.98236 0.100254 0.390087 -0.00669851 -0.188291 0.525359 -0.00921308 -0.101209 1.05259 -0.0166894 -6.84906e-016 13.125 1.0244e-016 -1.72962e-010 -26.25 -2.87838e-010 -0 0 0 -0 0 0 -3.11876e-016 -3.27716e-016 1.89855e-016 -6.5625 3.8732e-009 2.13965e-010 8.16723e-013 -9.22606e-013 -3.10601e-014 1.05877e-011 -3.02518e-012 -2.63116e-013 2.48136e-011 -8.56272e-012 -6.23165e-013 4.28813e-011 -1.47869e-011 -1.08169e-012 2.48187e-011 -8.56315e-012 -6.27489e-013 7.73091 5.47488 0.417314 2.48153e-011 -8.56327e-012 -6.21128e-013 2.90554 0.965183 0.102902 2.48271e-011 -8.56207e-012 -6.27793e-013 10.2786 0.731801 0.0259123 2.48138e-011 -8.56163e-012 -6.25203e-013 2.22167 -0.733487 -0.20892 -3.05467e-016 -3.27238e-016 -1.08322e-016 6.5625 3.8732e-009 -2.13965e-010 -1.02616e-012 -1.07552e-012 5.03919e-014 -1.30021e-011 -3.43874e-012 6.42795e-013 -3.04076e-011 -9.79712e-012 1.49481e-012 -5.25007e-011 -1.69278e-011 2.57895e-012 -3.04122e-011 -9.79601e-012 1.50232e-012 -7.73091 5.47488 -0.417314 -3.04074e-011 -9.79738e-012 1.48902e-012 -2.90554 0.965183 -0.102902 -3.04157e-011 -9.79671e-012 1.49314e-012 -10.2786 0.731801 -0.0259123 -3.04052e-011 -9.79343e-012 1.48902e-012 -2.22167 -0.733487 0.20892 -2.03217e-016 0 -3.88251e-019 -39.1543 -2.30966 0.289279 0.119649 -1.87943 1.10009 21.8077 2.81261 -2.97193 2.03217e-016 0 3.88251e-019 39.2014 -2.56614 -0.287572 -0.111723 -1.39569 -1.11454 -22.0438 2.56975 3.00547 
-0.0949052 -118.95 5.98236 0.0580987 0.475662 -0.00707017 -0.145193 0.640808 -0.00882348 -0.100125 1.28372 -0.0163157 2.09381e-015 16 1.27933e-016 -2.52294e-010 -32 -3.7109e-010 -0 0 0 -0 0 0 1.08975e-015 -3.97375e-016 1.98785e-016 -8 4.72161e-009 2.60833e-010 1.52711e-012 -1.28316e-012 -4.13472e-014 1.89994e-011 -3.52261e-012 -3.11694e-013 4.46195e-011 -1.04231e-011 -7.50611e-013 7.70927e-011 -1.79988e-011 -1.30244e-012 4.46252e-011 -1.04235e-011 -7.53791e-013 7.73091 5.47488 0.417314 4.46215e-011 -1.04238e-011 -7.4743e-013 2.90554 0.965183 0.102902 4.46342e-011 -1.04224e-011 -7.55382e-013 10.2786 0.731801 0.0259123 4.462e-011 -1.04219e-011 -7.53791e-013 2.22167 -0.733487 -0.20892 1.09695e-015 -3.96793e-016 -9.93923e-017 8 4.72161e-009 -2.60833e-010 -7.18209e-013 -1.15096e-012 5.725e-014 -9.75752e-012 -4.34543e-012 7.91958e-013 -2.26961e-011 -1.19279e-011 1.832e-012 -3.91817e-011 -2.061e-011 3.15988e-012 -2.27004e-011 -1.19271e-011 1.83836e-012 -7.73091 5.47488 -0.417314 -2.26958e-011 -1.19283e-011 1.82564e-012 -2.90554 0.965183 -0.102902 -2.27041e-011 -1.19275e-011 1.82961e-012 -10.2786 0.731801 -0.0259123 -2.26933e-011 -1.19235e-011 1.82564e-012 -2.22167 -0.733487 0.20892 -2.03217e-016 0 -3.88251e-019 -47.7794 -2.24962 0.358769 0.152967 -2.09987 1.35549 26.6873 2.67095 -3.65073 2.03217e-016 0 3.88251e-019 47.9683 -2.2366 -0.364794 -0.153998 -2.1 -1.36457 -26.991 2.63877 3.68713 
-0.0949052 -118.95 5.98236 0.0416034 0.509148 -0.0072156 -0.128329 0.685983 -0.00867104 -0.0997017 1.37417 -0.0161696 3.1804e-015 17.125 1.38188e-016 -2.88895e-010 -34.25 -4.07493e-010 -0 0 0 -0 0 0 1.63821e-015 -4.24633e-016 2.02279e-016 -8.5625 5.0536e-009 2.79173e-010 1.80509e-012 -1.42424e-012 -4.53726e-014 2.22909e-011 -3.71726e-012 -3.30703e-013 5.23696e-011 -1.1151e-011 -8.00481e-013 9.04797e-011 -1.92556e-011 -1.38882e-012 5.23755e-011 -1.11514e-011 -8.03214e-013 7.73091 5.47488 0.417314 5.23717e-011 -1.11518e-011 -7.96853e-013 2.90554 0.965183 0.102902 5.23848e-011 -1.11503e-011 -8.05308e-013 10.2786 0.731801 0.0259123 5.23703e-011 -1.11498e-011 -8.04109e-013 2.22167 -0.733487 -0.20892 1.64573e-015 -4.2401e-016 -9.58981e-017 8.5625 5.0536e-009 -2.79173e-010 -5.97706e-013 -1.18048e-012 5.99336e-014 -8.48789e-012 -4.70022e-012 8.50326e-013 -1.96785e-011 -1.27616e-011 1.96394e-012 -3.39699e-011 -2.20509e-011 3.3872e-012 -1.96827e-011 -1.2761e-011 1.96986e-012 -7.73091 5.47488 -0.417314 -1.96782e-011 -1.27621e-011 1.95736e-012 -2.90554 0.965183 -0.102902 -1.96865e-011 -1.27613e-011 1.96128e-012 -10.2786 0.731801 -0.0259123 -1.96756e-011 -1.2757e-011 1.95736e-012 -2.22167 -0.733487 0.20892 -2.03217e-016 0 -3.88251e-019 -51.1545 -2.22612 0.385959 0.166541 -2.18611 1.45545 28.5958 2.61546 -3.91631 2.03217e-016 0 3.88251e-019 51.3991 -2.10765 -0.395005 -0.172216 -2.37554 -1.46252 -28.9273 2.66566 3.95389 
-0.0949052 -118.95 5.98236 0.0434362 0.505427 -0.00719944 -0.130203 0.680964 -0.00868798 -0.0997487 1.36412 -0.0161858 3.05968e-015 17 1.3704e-016 -2.84658e-010 -34 -4.03324e-010 -0 0 0 -0 0 0 1.57727e-015 -4.21605e-016 2.01891e-016 -8.5 5.01671e-009 2.77135e-010 1.77421e-012 -1.40856e-012 -4.49253e-014 2.19252e-011 -3.69563e-012 -3.28591e-013 5.15085e-011 -1.10702e-011 -7.9494e-013 8.89923e-011 -1.91159e-011 -1.37922e-012 5.15144e-011 -1.10705e-011 -7.97723e-013 7.73091 5.47488 0.417314 5.15106e-011 -1.10709e-011 -7.91362e-013 2.90554 0.965183 0.102902 5.15236e-011 -1.10694e-011 -7.9976e-013 10.2786 0.731801 0.0259123 5.15091e-011 -1.10689e-011 -7.98518e-013 2.22167 -0.733487 -0.20892 1.58475e-015 -4.20986e-016 -9.62863e-017 8.5 5.01671e-009 -2.77135e-010 -6.11095e-013 -1.1772e-012 5.96354e-014 -8.62896e-012 -4.6608e-012 8.43841e-013 -2.00138e-011 -1.2669e-011 1.94928e-012 -3.4549e-011 -2.18908e-011 3.36195e-012 -2.0018e-011 -1.26683e-011 1.95525e-012 -7.73091 5.47488 -0.417314 -2.00135e-011 -1.26695e-011 1.94272e-012 -2.90554 0.965183 -0.102902 -2.00218e-011 -1.26686e-011 1.94665e-012 -10.2786 0.731801 -0.0259123 -2.00109e-011 -1.26644e-011 1.94272e-012 -2.22167 -0.733487 0.20892 -2.03217e-016 0 -3.88251e-019 -50.7795 -2.22873 0.382938 0.165018 -2.17653 1.44434 28.3837 2.62163 -3.88681 2.03217e-016 0 3.88251e-019 51.0179 -2.12198 -0.391648 -0.170145 -2.34493 -1.45164 -28.7122 2.66267 3.92425 
